<?xml version="1.0" encoding="UTF-8" standalone="no"?>
<!-- Created with Inkscape (http://www.inkscape.org/) -->

<svg
   width="653.86926"
   height="798.99371"
   viewBox="0 0 653.86926 798.99371"
   version="1.1"
   id="svg1"
   xml:space="preserve"
   inkscape:version="1.4.3 (0d15f75042, 2025-12-25)"
   sodipodi:docname="GIOIA.svg"
   xmlns:inkscape="http://www.inkscape.org/namespaces/inkscape"
   xmlns:sodipodi="http://sodipodi.sourceforge.net/DTD/sodipodi-0.dtd"
   xmlns="http://www.w3.org/2000/svg"
   xmlns:svg="http://www.w3.org/2000/svg"><sodipodi:namedview
     id="namedview1"
     pagecolor="#ffffff"
     bordercolor="#000000"
     borderopacity="0.25"
     inkscape:showpageshadow="2"
     inkscape:pageopacity="0.0"
     inkscape:pagecheckerboard="0"
     inkscape:deskcolor="#d1d1d1"
     inkscape:document-units="px"
     showguides="true"
     showgrid="false"
     inkscape:zoom="0.1767767"
     inkscape:cx="936.20938"
     inkscape:cy="-101.82338"
     inkscape:window-width="1920"
     inkscape:window-height="993"
     inkscape:window-x="0"
     inkscape:window-y="0"
     inkscape:window-maximized="1"
     inkscape:current-layer="layer1"><inkscape:grid
       id="grid10"
       units="px"
       originx="1577.451"
       originy="-159.27002"
       spacingx="1"
       spacingy="1"
       empcolor="#0099e5"
       empopacity="0.30196078"
       color="#0099e5"
       opacity="0.14901961"
       empspacing="5"
       enabled="true"
       visible="false" /><inkscape:page
       x="0"
       y="0"
       width="653.86926"
       height="798.99371"
       id="page1"
       margin="0"
       bleed="0" /></sodipodi:namedview><defs
     id="defs1" /><g
     inkscape:label="Camada 1"
     inkscape:groupmode="layer"
     id="layer1"
     style="display:inline"
     transform="translate(1577.4509,-159.26999)"><g
       id="g1"
       inkscape:export-filename="../g1.svg"
       inkscape:export-xdpi="96"
       inkscape:export-ydpi="96"><g
         id="g3"
         transform="matrix(1.1672088,0,0,1.1672088,-2371.8963,-52.31)"
         style="fill:#d1af66;fill-opacity:1;stroke:none;stroke-width:0.999821;stroke-dasharray:none"><path
           d="m 791.25333,181.28218 0.004,418.61804 150.41515,0.008 -0.0255,-339.39152 -76.46085,-0.30064 v 37.23056 h 39.21319 V 563.31504 H 827.25073 V 218.18453 H 941.6144 l 0.0758,-36.91446 z"
           style="opacity:1;fill:#d1af66;fill-opacity:1;stroke:none;stroke-width:0.999821;stroke-dasharray:none"
           id="path2"
           sodipodi:nodetypes="ccccccccccccc" /><path
           d="m 1130.2194,181.28218 v 418.61804 l -150.41517,0.008 0.0256,-339.39152 76.46077,-0.30064 v 37.23056 h -39.2131 v 265.86842 h 77.1478 V 218.18466 H 979.86158 l -0.0759,-36.91446 z"
           style="opacity:1;fill:#d1af66;fill-opacity:1;stroke:none;stroke-width:0.999821;stroke-dasharray:none"
           id="path3"
           sodipodi:nodetypes="ccccccccccccc" /></g><g
         id="g16"
         transform="translate(-4037.9999,-5.026953)"><path
           d="m 2629.4028,801.93643 v 21.13237 q -2.9457,3.84225 -8.3249,7.6845 -5.3791,3.84225 -13.0636,6.40375 -7.5564,2.43342 -17.5463,2.43342 -13.8321,-0.12807 -24.4623,-5.89145 -10.5022,-5.76337 -16.3936,-16.13745 -5.8915,-10.50214 -5.8915,-24.59039 0,-14.08825 5.8915,-24.5904 5.8914,-10.50215 16.3936,-16.26553 10.6302,-5.76337 24.7185,-5.76337 7.0441,0 13.0636,1.15267 6.0195,1.0246 10.8864,2.94573 4.8668,1.79305 8.581,4.0984 l 1.7931,19.33932 h -1.1527 q -2.0492,-7.94065 -6.5318,-12.93557 -4.4827,-5.123 -11.0145,-7.6845 -6.4037,-2.5615 -14.3444,-2.5615 -10.6302,0 -18.5709,5.25107 -7.8125,5.25108 -12.1671,14.8567 -4.2265,9.47755 -4.2265,22.41313 0,12.55135 4.2265,22.02889 4.2265,9.47755 11.7829,14.72863 7.6845,5.123 18.0586,5.25107 5.2511,0 10.1179,-1.40882 4.9949,-1.40883 9.2214,-3.97033 4.2265,-2.5615 7.0441,-6.27567 l 0.1281,-21.64467 q 0,-5.76338 -6.5318,-5.76338 h -2.0492 v -1.28075 h 28.6888 v 1.28075 h -1.9211 q -6.6599,0 -6.4038,5.76338 z m 63.1279,-53.7915 v 89.65249 h -11.911 v -89.65249 z m -11.5267,80.30302 v 9.34947 h -10.246 v -1.28075 q 0,0 0.7684,0 0.8965,0 0.8965,0 3.33,0 5.6353,-2.30535 2.4335,-2.43342 2.5615,-5.76337 z m 0,-70.95355 h -0.3843 q -0.128,-3.32995 -2.5615,-5.6353 -2.3053,-2.43342 -5.6353,-2.43342 0,0 -0.8965,0 -0.7684,0 -0.7684,0 v -1.28075 h 10.246 z m 11.1425,70.95355 h 0.3842 q 0.1281,3.32995 2.4334,5.76337 2.4335,2.30535 5.7634,2.30535 0,0 0.7685,0 0.7684,0 0.8965,0 v 1.28075 h -10.246 z m 0,-70.95355 v -9.34947 h 10.246 v 1.28075 q -0.1281,0 -0.8965,0 -0.7685,0 -0.7685,0 -3.3299,0 -5.7634,2.43342 -2.3053,2.30535 -2.4334,5.6353 z m 96.4272,-11.14252 q 14.3444,0 24.9746,5.76337 10.7583,5.76338 16.6498,16.26553 6.0195,10.50215 6.0195,24.5904 0,14.08825 -6.0195,24.59039 -5.8915,10.50215 -16.6498,16.26553 -10.6302,5.76337 -24.9746,5.76337 -14.0883,0 -24.8466,-5.76337 -10.6302,-5.76338 -16.6497,-16.26553 -5.8915,-10.50214 -5.8915,-24.59039 0,-14.08825 5.8915,-24.5904 6.0195,-10.50215 16.6497,-16.26553 10.7583,-5.76337 24.8466,-5.76337 z m 0,88.88404 q 10.3741,0 17.9305,-5.25107 7.6845,-5.25108 11.7829,-14.72863 4.2265,-9.47754 4.2265,-22.28504 0,-12.8075 -4.2265,-22.28505 -4.0984,-9.47755 -11.7829,-14.72863 -7.5564,-5.25107 -17.9305,-5.25107 -10.1179,0 -17.8024,5.25107 -7.5565,5.25108 -11.7829,14.72863 -4.2265,9.47755 -4.2265,22.28505 0,12.8075 4.2265,22.28504 4.2264,9.47755 11.7829,14.72863 7.6845,5.25107 17.8024,5.25107 z m 106.2889,-87.09099 v 89.65249 h -11.911 v -89.65249 z m -11.5268,80.30302 v 9.34947 h -10.246 v -1.28075 q 0,0 0.7685,0 0.8965,0 0.8965,0 3.3299,0 5.6353,-2.30535 2.4334,-2.43342 2.5615,-5.76337 z m 0,-70.95355 h -0.3842 q -0.1281,-3.32995 -2.5615,-5.6353 -2.3054,-2.43342 -5.6353,-2.43342 0,0 -0.8965,0 -0.7685,0 -0.7685,0 v -1.28075 h 10.246 z m 11.1425,70.95355 h 0.3843 q 0.128,3.32995 2.4334,5.76337 2.4334,2.30535 5.7634,2.30535 0,0 0.7684,0 0.7685,0 0.8965,0 v 1.28075 h -10.246 z m 0,-70.95355 v -9.34947 h 10.246 v 1.28075 q -0.128,0 -0.8965,0 -0.7684,0 -0.7684,0 -3.33,0 -5.7634,2.43342 -2.3054,2.30535 -2.4334,5.6353 z m 88.9959,-11.39867 39.191,90.93324 h -14.8567 l -28.5608,-74.53964 z m -27.5361,82.35222 q -0.8965,2.5615 -0.2562,4.35455 0.6404,1.79305 2.0492,2.81765 1.5369,0.89652 3.0738,0.89652 h 1.1527 v 1.28075 h -26.2554 v -1.28075 q 0,0 0.6404,0 0.5123,0 0.5123,0 2.9457,0 6.0195,-1.79305 3.2019,-1.92112 5.2511,-6.27567 z m 27.5361,-82.35222 1.0246,11.14252 -32.0187,80.17495 h -8.3249 l 32.9153,-76.97307 q 0.128,-0.25615 0.8965,-1.92113 0.8965,-1.79305 1.793,-4.22647 1.0246,-2.43343 1.7931,-4.73878 0.7684,-2.30535 0.7684,-3.45802 z m 16.5217,58.27412 v 4.35455 h -39.191 v -4.35455 z m 4.4826,24.0781 h 14.4725 q 2.0492,4.35455 5.123,6.27567 3.2019,1.79305 6.1476,1.79305 0,0 0.5123,0 0.5123,0 0.5123,0 v 1.28075 h -32.7872 v -1.28075 h 1.1527 q 2.5615,0 4.4826,-2.0492 1.9211,-2.17727 0.3842,-6.01952 z"
           id="text1"
           style="font-size:128.075px;line-height:0;font-family:Cinzel;-inkscape-font-specification:'Cinzel, @wght=500';font-variation-settings:'wght' 500;letter-spacing:26.4983px;fill:#c6c5c5;stroke-width:105.049"
           aria-label="GIOIA" /><path
           d="m 2477.5689,962.7196 -2.8034,-7.83699 h -8.8246 l -2.8353,7.83699 h -1.9115 l 8.3786,-22.84197 h 1.7521 l 8.1556,22.84197 z m -6.1803,-17.71288 q -0.1593,-0.446 -0.4779,-1.40174 -0.2867,-0.95573 -0.5097,-1.68845 -0.223,0.86015 -0.5098,1.68845 -0.2548,0.8283 -0.4778,1.4336 l -2.8672,8.15557 h 7.6458 z m 38.9301,11.78735 q 0,2.0389 -0.9876,3.44063 -0.9557,1.40174 -2.6441,2.10261 -1.6566,0.70087 -3.7911,0.70087 -1.9433,0 -3.3769,-0.28672 -1.4336,-0.28672 -2.4849,-0.73272 v -1.81589 q 1.1469,0.47786 2.6442,0.8283 1.5291,0.35043 3.3132,0.35043 2.4212,0 3.9185,-1.11502 1.5291,-1.11502 1.5291,-3.34506 0,-1.33802 -0.6053,-2.19818 -0.5734,-0.89201 -1.784,-1.52917 -1.2106,-0.66901 -3.0583,-1.33802 -1.7522,-0.63716 -3.0265,-1.4336 -1.2743,-0.79644 -1.9752,-1.97518 -0.7009,-1.21059 -0.7009,-3.02648 0,-1.84774 0.8921,-3.12205 0.892,-1.30617 2.4211,-1.97518 1.5611,-0.66901 3.5362,-0.66901 1.5611,0 2.9628,0.31858 1.4017,0.31857 2.7079,0.89201 l -0.6371,1.59289 q -2.5805,-1.14688 -5.0973,-1.14688 -2.1663,0 -3.5362,1.0513 -1.3699,1.01945 -1.3699,3.02649 0,1.46545 0.5735,2.35747 0.6053,0.86015 1.7522,1.46545 1.1468,0.6053 2.7716,1.21059 1.8796,0.66901 3.2176,1.46546 1.3699,0.76458 2.1026,1.94332 0.7327,1.14687 0.7327,2.96276 z m 32.3038,0 q 0,2.0389 -0.9876,3.44063 -0.9557,1.40174 -2.6442,2.10261 -1.6566,0.70087 -3.791,0.70087 -1.9434,0 -3.377,-0.28672 -1.4336,-0.28672 -2.4849,-0.73272 v -1.81589 q 1.1469,0.47786 2.6442,0.8283 1.5292,0.35043 3.3132,0.35043 2.4212,0 3.9185,-1.11502 1.5292,-1.11502 1.5292,-3.34506 0,-1.33802 -0.6053,-2.19818 -0.5734,-0.89201 -1.784,-1.52917 -1.2106,-0.66901 -3.0584,-1.33802 -1.7521,-0.63716 -3.0265,-1.4336 -1.2743,-0.79644 -1.9751,-1.97518 -0.7009,-1.21059 -0.7009,-3.02648 0,-1.84774 0.892,-3.12205 0.892,-1.30617 2.4212,-1.97518 1.561,-0.66901 3.5362,-0.66901 1.561,0 2.9628,0.31858 1.4017,0.31857 2.7079,0.89201 l -0.6372,1.59289 q -2.5805,-1.14688 -5.0972,-1.14688 -2.1663,0 -3.5362,1.0513 -1.3699,1.01945 -1.3699,3.02649 0,1.46545 0.5734,2.35747 0.6053,0.86015 1.7522,1.46545 1.1469,0.6053 2.7716,1.21059 1.8796,0.66901 3.2177,1.46546 1.3698,0.76458 2.1026,1.94332 0.7327,1.14687 0.7327,2.96276 z m 38.5797,-5.47952 q 0,3.47249 -1.0831,6.11668 -1.0832,2.64419 -3.2495,4.1415 -2.1345,1.46545 -5.3203,1.46545 -3.2176,0 -5.3839,-1.46545 -2.1345,-1.49731 -3.2176,-4.1415 -1.0513,-2.67605 -1.0513,-6.14854 0,-3.47249 1.0831,-6.08482 1.115,-2.61233 3.2814,-4.07779 2.1663,-1.49731 5.3839,-1.49731 3.0902,0 5.2247,1.4336 2.1344,1.40174 3.2176,4.01407 1.115,2.61233 1.115,6.24411 z m -17.3624,-0.0319 q 0,3.02648 0.8283,5.32024 0.8283,2.26189 2.5486,3.5362 1.7203,1.24245 4.3645,1.24245 2.6442,0 4.3326,-1.24245 1.6885,-1.24245 2.5168,-3.50435 0.8283,-2.29375 0.8283,-5.32023 0,-4.7468 -1.9115,-7.39099 -1.9114,-2.64419 -5.7025,-2.64419 -2.6442,0 -4.3964,1.27431 -1.7203,1.24245 -2.5804,3.50435 -0.8283,2.23004 -0.8283,5.22466 z m 47.245,-9.97146 q -2.6124,0 -4.4601,1.27431 -1.8477,1.24245 -2.8353,3.50434 -0.9876,2.23004 -0.9876,5.19281 0,3.05834 0.892,5.35209 0.892,2.2619 2.676,3.50435 1.7841,1.24245 4.4283,1.24245 1.561,0 2.8672,-0.25486 1.3061,-0.28672 2.4849,-0.70087 v 1.6566 q -1.1151,0.44601 -2.4531,0.70087 -1.3062,0.25486 -3.0902,0.25486 -3.2176,0 -5.4158,-1.46545 -2.1663,-1.46546 -3.2495,-4.10965 -1.0831,-2.64419 -1.0831,-6.18039 0,-3.37692 1.2106,-5.98925 1.2105,-2.64419 3.5043,-4.1415 2.2938,-1.49731 5.5432,-1.49731 3.1221,0 5.6389,1.24245 l -0.7328,1.62474 q -2.2937,-1.21059 -4.9379,-1.21059 z m 30.4241,21.40837 h -6.4034 v -1.14687 l 2.2938,-0.35044 v -19.71991 l -2.2938,-0.3823 v -1.14687 h 6.4034 v 1.14687 l -2.2619,0.3823 v 19.71991 l 2.2619,0.35044 z m 33.8011,0 -2.8035,-7.83699 h -8.8245 l -2.8354,7.83699 h -1.9114 l 8.3785,-22.84197 h 1.7522 l 8.1556,22.84197 z m -6.1804,-17.71288 q -0.1593,-0.446 -0.4778,-1.40174 -0.2868,-0.95573 -0.5098,-1.68845 -0.223,0.86015 -0.5097,1.68845 -0.2548,0.8283 -0.4778,1.4336 l -2.8672,8.15557 h 7.6458 z m 43.5496,6.11668 q 0,5.73439 -2.8672,8.6653 -2.8672,2.9309 -8.3149,2.9309 h -5.3202 v -22.74639 h 5.9892 q 5.0654,0 7.7733,2.86719 2.7398,2.83533 2.7398,8.283 z m -1.9752,0.0637 q 0,-9.58917 -8.8564,-9.58917 h -3.823 v 19.49691 h 3.377 q 9.3024,0 9.3024,-9.90774 z m 40.9053,0.12743 q 0,3.47249 -1.0831,6.11668 -1.0832,2.64419 -3.2495,4.1415 -2.1345,1.46545 -5.3203,1.46545 -3.2176,0 -5.3839,-1.46545 -2.1345,-1.49731 -3.2176,-4.1415 -1.0513,-2.67605 -1.0513,-6.14854 0,-3.47249 1.0831,-6.08482 1.115,-2.61233 3.2814,-4.07779 2.1663,-1.49731 5.3839,-1.49731 3.0902,0 5.2247,1.4336 2.1344,1.40174 3.2176,4.01407 1.115,2.61233 1.115,6.24411 z m -17.3624,-0.0319 q 0,3.02648 0.8283,5.32024 0.8283,2.26189 2.5486,3.5362 1.7203,1.24245 4.3645,1.24245 2.6442,0 4.3326,-1.24245 1.6885,-1.24245 2.5168,-3.50435 0.8283,-2.29375 0.8283,-5.32023 0,-4.7468 -1.9115,-7.39099 -1.9114,-2.64419 -5.7025,-2.64419 -2.6442,0 -4.3963,1.27431 -1.7204,1.24245 -2.5805,3.50435 -0.8283,2.23004 -0.8283,5.22466 z m 50.0485,5.51138 q 0,2.0389 -0.9876,3.44063 -0.9558,1.40174 -2.6442,2.10261 -1.6566,0.70087 -3.7911,0.70087 -1.9433,0 -3.3769,-0.28672 -1.4336,-0.28672 -2.4849,-0.73272 v -1.81589 q 1.1469,0.47786 2.6442,0.8283 1.5292,0.35043 3.3132,0.35043 2.4212,0 3.9185,-1.11502 1.5292,-1.11502 1.5292,-3.34506 0,-1.33802 -0.6053,-2.19818 -0.5735,-0.89201 -1.7841,-1.52917 -1.2106,-0.66901 -3.0583,-1.33802 -1.7522,-0.63716 -3.0265,-1.4336 -1.2743,-0.79644 -1.9752,-1.97518 -0.7008,-1.21059 -0.7008,-3.02648 0,-1.84774 0.892,-3.12205 0.892,-1.30617 2.4212,-1.97518 1.561,-0.66901 3.5362,-0.66901 1.561,0 2.9627,0.31858 1.4018,0.31857 2.7079,0.89201 l -0.6371,1.59289 q -2.5805,-1.14688 -5.0972,-1.14688 -2.1664,0 -3.5363,1.0513 -1.3698,1.01945 -1.3698,3.02649 0,1.46545 0.5734,2.35747 0.6053,0.86015 1.7522,1.46545 1.1469,0.6053 2.7716,1.21059 1.8796,0.66901 3.2176,1.46546 1.3699,0.76458 2.1026,1.94332 0.7328,1.14687 0.7328,2.96276 z m 57.5032,5.92553 -2.8035,-7.83699 h -8.8246 l -2.8353,7.83699 h -1.9115 l 8.3786,-22.84197 h 1.7522 l 8.1556,22.84197 z m -6.1804,-17.71288 q -0.1593,-0.446 -0.4779,-1.40174 -0.2867,-0.95573 -0.5097,-1.68845 -0.223,0.86015 -0.5097,1.68845 -0.2549,0.8283 -0.4779,1.4336 l -2.8672,8.15557 h 7.6459 z m 43.5496,6.11668 q 0,5.73439 -2.8672,8.6653 -2.8672,2.9309 -8.3149,2.9309 h -5.3202 v -22.74639 h 5.9892 q 5.0654,0 7.7733,2.86719 2.7398,2.83533 2.7398,8.283 z m -1.9752,0.0637 q 0,-9.58917 -8.8565,-9.58917 h -3.8229 v 19.49691 h 3.3769 q 9.3025,0 9.3025,-9.90774 z m 36.9868,-11.21391 -7.837,22.74639 h -1.8478 l -7.8369,-22.74639 h 1.9433 l 5.5751,16.37485 q 0.3823,1.17874 0.7008,2.23004 0.3186,1.05131 0.5416,1.94332 0.1912,-0.89201 0.5097,-1.91146 0.3186,-1.01945 0.7328,-2.29375 l 5.5432,-16.343 z m 36.7956,11.34134 q 0,3.47249 -1.0831,6.11668 -1.0832,2.64419 -3.2495,4.1415 -2.1345,1.46545 -5.3202,1.46545 -3.2177,0 -5.384,-1.46545 -2.1345,-1.49731 -3.2176,-4.1415 -1.0513,-2.67605 -1.0513,-6.14854 0,-3.47249 1.0831,-6.08482 1.1151,-2.61233 3.2814,-4.07779 2.1663,-1.49731 5.3839,-1.49731 3.0902,0 5.2247,1.4336 2.1345,1.40174 3.2176,4.01407 1.115,2.61233 1.115,6.24411 z m -17.3624,-0.0319 q 0,3.02648 0.8283,5.32024 0.8283,2.26189 2.5486,3.5362 1.7203,1.24245 4.3645,1.24245 2.6442,0 4.3327,-1.24245 1.6884,-1.24245 2.5167,-3.50435 0.8283,-2.29375 0.8283,-5.32023 0,-4.7468 -1.9114,-7.39099 -1.9115,-2.64419 -5.7026,-2.64419 -2.6442,0 -4.3963,1.27431 -1.7203,1.24245 -2.5805,3.50435 -0.8283,2.23004 -0.8283,5.22466 z m 47.245,-9.97146 q -2.6123,0 -4.4601,1.27431 -1.8477,1.24245 -2.8353,3.50434 -0.9876,2.23004 -0.9876,5.19281 0,3.05834 0.892,5.35209 0.892,2.2619 2.6761,3.50435 1.784,1.24245 4.4282,1.24245 1.561,0 2.8672,-0.25486 1.3061,-0.28672 2.4849,-0.70087 v 1.6566 q -1.115,0.44601 -2.4531,0.70087 -1.3061,0.25486 -3.0902,0.25486 -3.2176,0 -5.4158,-1.46545 -2.1663,-1.46546 -3.2495,-4.10965 -1.0831,-2.64419 -1.0831,-6.18039 0,-3.37692 1.2106,-5.98925 1.2106,-2.64419 3.5043,-4.1415 2.2938,-1.49731 5.5433,-1.49731 3.122,0 5.6388,1.24245 l -0.7327,1.62474 q -2.2938,-1.21059 -4.938,-1.21059 z m 38.8983,21.40837 -2.8035,-7.83699 h -8.8246 l -2.8353,7.83699 h -1.9115 l 8.3786,-22.84197 h 1.7522 l 8.1556,22.84197 z m -6.1804,-17.71288 q -0.1593,-0.446 -0.4779,-1.40174 -0.2867,-0.95573 -0.5097,-1.68845 -0.223,0.86015 -0.5097,1.68845 -0.2549,0.8283 -0.4779,1.4336 l -2.8672,8.15557 h 7.6459 z m 35.5215,-3.69549 q -2.6124,0 -4.4601,1.27431 -1.8478,1.24245 -2.8354,3.50434 -0.9875,2.23004 -0.9875,5.19281 0,3.05834 0.892,5.35209 0.892,2.2619 2.676,3.50435 1.784,1.24245 4.4282,1.24245 1.5611,0 2.8672,-0.25486 1.3062,-0.28672 2.4849,-0.70087 v 1.6566 q -1.115,0.44601 -2.453,0.70087 -1.3062,0.25486 -3.0902,0.25486 -3.2176,0 -5.4158,-1.46545 -2.1663,-1.46546 -3.2495,-4.10965 -1.0832,-2.64419 -1.0832,-6.18039 0,-3.37692 1.2106,-5.98925 1.2106,-2.64419 3.5044,-4.1415 2.2937,-1.49731 5.5432,-1.49731 3.1221,0 5.6388,1.24245 l -0.7327,1.62474 q -2.2938,-1.21059 -4.9379,-1.21059 z m 30.4241,21.40837 h -6.4034 v -1.14687 l 2.2938,-0.35044 v -19.71991 l -2.2938,-0.3823 v -1.14687 h 6.4034 v 1.14687 l -2.2619,0.3823 v 19.71991 l 2.2619,0.35044 z m 33.8011,0 -2.8035,-7.83699 h -8.8246 l -2.8353,7.83699 h -1.9115 l 8.3786,-22.84197 h 1.7522 l 8.1555,22.84197 z m -6.1804,-17.71288 q -0.1593,-0.446 -0.4779,-1.40174 -0.2867,-0.95573 -0.5097,-1.68845 -0.223,0.86015 -0.5097,1.68845 -0.2549,0.8283 -0.4779,1.4336 l -2.8672,8.15557 h 7.6459 z"
           id="text2"
           style="font-weight:300;font-size:31.8577px;line-height:0;font-family:'Noto Sans Display';-inkscape-font-specification:'Noto Sans Display, Light';letter-spacing:15.9289px;fill:#ffffff;stroke-width:1.09471"
           transform="scale(0.99973787,1.0002622)"
           aria-label="ASSOCIADOS ADVOCACIA" /><g
           id="g14"
           transform="matrix(0.82244451,0,0,0.82807097,5482.9283,149.40756)"
           style="fill:#d1af66;fill-opacity:1"><path
             style="opacity:1;fill:#d1af66;fill-opacity:1;stroke:#f5f5f5;stroke-width:2.30943;stroke-dasharray:none;stroke-opacity:1"
             d="m -3674.8731,895.35 h 343.5207 z"
             id="path8" /><path
             style="opacity:1;fill:#d1af66;fill-opacity:1;stroke:#f5f5f5;stroke-width:2.32688;stroke-dasharray:none;stroke-opacity:1"
             d="m -3228.574,896.35 h 348.7321 z"
             id="path9" /><text
             xml:space="preserve"
             style="font-style:normal;font-variant:normal;font-weight:300;font-stretch:normal;font-size:38.4722px;line-height:0;font-family:'Noto Sans Display';-inkscape-font-specification:'Noto Sans Display, Light';font-variant-ligatures:normal;font-variant-caps:normal;font-variant-numeric:normal;font-variant-east-asian:normal;letter-spacing:19.2362px;writing-mode:lr-tb;direction:ltr;fill:#d1af66;fill-opacity:1;stroke:none;stroke-width:1.32248;stroke-opacity:1"
             x="-3289.8704"
             y="910.56287"
             id="text10"
             transform="scale(0.99973787,1.0002622)"><tspan
               sodipodi:role="line"
               id="tspan10"
               x="-3289.8704"
               y="910.56287"
               style="font-style:normal;font-variant:normal;font-weight:300;font-stretch:normal;font-size:38.4722px;font-family:'Noto Sans Display';-inkscape-font-specification:'Noto Sans Display, Light';font-variant-ligatures:normal;font-variant-caps:normal;font-variant-numeric:normal;font-variant-east-asian:normal;fill:#d1af66;fill-opacity:1;stroke-width:1.32248">&amp;</tspan></text></g></g></g></g></svg>
