<svg width="3345" height="985" viewBox="0 0 3345 985" fill="none" xmlns="http://www.w3.org/2000/svg">
<path d="M0 0.0284888L0.00932883 984.384L353.702 984.402L353.642 186.344L173.849 185.637V273.182H266.056V898.356H84.6457V86.8021H353.565L353.743 0L0 0.0284888Z" fill="#D1AF66"/>
<path d="M797.067 0.0281659V984.383L443.375 984.402L443.435 186.343L623.228 185.636V273.182H531.021V898.355H712.429V86.8021H443.51L443.331 0L797.067 0.0281659Z" fill="#D1AF66"/>
<path d="M1429.56 414.237V512.369C1420.45 524.264 1407.6 536.159 1390.98 548.054C1374.36 559.949 1354.18 569.861 1330.44 577.791C1307.09 585.324 1279.99 589.091 1249.13 589.091C1206.39 588.694 1168.61 579.575 1135.77 561.733C1103.32 543.891 1078 518.912 1059.8 486.796C1041.6 454.283 1032.5 416.22 1032.5 372.605C1032.5 328.991 1041.6 290.928 1059.8 258.415C1078 225.903 1103.32 200.725 1135.77 182.883C1168.61 165.041 1206.79 156.12 1250.31 156.12C1272.08 156.12 1292.26 157.904 1310.85 161.473C1329.45 164.645 1346.27 169.204 1361.3 175.151C1376.34 180.702 1389.59 187.046 1401.07 194.183L1409.38 283.989H1404.03C1397.7 259.406 1387.61 239.384 1373.77 223.92C1359.92 208.061 1342.9 196.166 1322.72 188.236C1302.94 180.306 1280.78 176.341 1256.25 176.341C1223.41 176.341 1194.72 184.469 1170.19 200.725C1146.05 216.982 1127.26 239.978 1113.81 269.715C1100.75 299.056 1094.22 333.749 1094.22 373.795C1094.22 412.651 1100.75 446.75 1113.81 476.09C1126.86 505.431 1145.06 528.229 1168.41 544.485C1192.15 560.345 1220.05 568.473 1252.1 568.87C1268.32 568.87 1283.95 566.689 1298.98 562.328C1314.41 557.966 1328.66 551.82 1341.72 543.891C1354.77 535.961 1365.65 526.247 1374.36 514.748L1374.95 414.237C1374.95 396.395 1364.86 387.474 1344.68 387.474H1335.19V381.526H1468.13V387.474H1459.23C1438.66 387.474 1428.76 396.395 1429.56 414.237ZM1722.1 164.446V580.765H1666.9V164.446H1722.1ZM1668.68 537.348V580.765H1621.2V574.817C1621.2 574.817 1622.39 574.817 1624.76 574.817C1627.53 574.817 1628.91 574.817 1628.91 574.817C1639.2 574.817 1647.91 571.249 1655.03 564.112C1662.55 556.578 1666.5 547.657 1666.9 537.348H1668.68ZM1668.68 207.862H1666.9C1666.5 197.553 1662.55 188.83 1655.03 181.693C1647.91 174.16 1639.2 170.393 1628.91 170.393C1628.91 170.393 1627.53 170.393 1624.76 170.393C1622.39 170.393 1621.2 170.393 1621.2 170.393V164.446H1668.68V207.862ZM1720.32 537.348H1722.1C1722.49 547.657 1726.25 556.578 1733.37 564.112C1740.89 571.249 1749.79 574.817 1760.08 574.817C1760.08 574.817 1761.27 574.817 1763.64 574.817C1766.02 574.817 1767.4 574.817 1767.8 574.817V580.765H1720.32V537.348ZM1720.32 207.862V164.446H1767.8V170.393C1767.4 170.393 1766.02 170.393 1763.64 170.393C1761.27 170.393 1760.08 170.393 1760.08 170.393C1749.79 170.393 1740.89 174.16 1733.37 181.693C1726.25 188.83 1722.49 197.553 1722.1 207.862H1720.32ZM2167.17 156.12C2211.49 156.12 2250.06 165.041 2282.9 182.883C2316.14 200.725 2341.86 225.903 2360.06 258.415C2378.66 290.928 2387.96 328.991 2387.96 372.605C2387.96 416.22 2378.66 454.283 2360.06 486.796C2341.86 519.308 2316.14 544.485 2282.9 562.328C2250.06 580.17 2211.49 589.091 2167.17 589.091C2123.65 589.091 2085.26 580.17 2052.03 562.328C2019.19 544.485 1993.47 519.308 1974.87 486.796C1956.67 454.283 1947.57 416.22 1947.57 372.605C1947.57 328.991 1956.67 290.928 1974.87 258.415C1993.47 225.903 2019.19 200.725 2052.03 182.883C2085.26 165.041 2123.65 156.12 2167.17 156.12ZM2167.17 568.87C2199.22 568.87 2226.92 560.742 2250.26 544.485C2274 528.229 2292.2 505.431 2304.86 476.09C2317.92 446.75 2324.45 412.255 2324.45 372.605C2324.45 332.956 2317.92 298.461 2304.86 269.121C2292.2 239.78 2274 216.982 2250.26 200.725C2226.92 184.469 2199.22 176.341 2167.17 176.341C2135.91 176.341 2108.41 184.469 2084.67 200.725C2061.33 216.982 2043.12 239.78 2030.07 269.121C2017.01 298.461 2010.48 332.956 2010.48 372.605C2010.48 412.255 2017.01 446.75 2030.07 476.09C2043.12 505.431 2061.33 528.229 2084.67 544.485C2108.41 560.742 2135.91 568.87 2167.17 568.87ZM2659.72 164.446V580.765H2604.53V164.446H2659.72ZM2606.31 537.348V580.765H2558.83V574.817C2558.83 574.817 2560.01 574.817 2562.39 574.817C2565.16 574.817 2566.54 574.817 2566.54 574.817C2576.83 574.817 2585.53 571.249 2592.66 564.112C2600.17 556.578 2604.13 547.657 2604.53 537.348H2606.31ZM2606.31 207.862H2604.53C2604.13 197.553 2600.17 188.83 2592.66 181.693C2585.53 174.16 2576.83 170.393 2566.54 170.393C2566.54 170.393 2565.16 170.393 2562.39 170.393C2560.01 170.393 2558.83 170.393 2558.83 170.393V164.446H2606.31V207.862ZM2657.94 537.348H2659.72C2660.12 547.657 2663.88 556.578 2671 564.112C2678.52 571.249 2687.42 574.817 2697.71 574.817C2697.71 574.817 2698.9 574.817 2701.27 574.817C2703.64 574.817 2705.03 574.817 2705.42 574.817V580.765H2657.94V537.348ZM2657.94 207.862V164.446H2705.42V170.393C2705.03 170.393 2703.64 170.393 2701.27 170.393C2698.9 170.393 2697.71 170.393 2697.71 170.393C2687.42 170.393 2678.52 174.16 2671 181.693C2663.88 188.83 2660.12 197.553 2659.72 207.862H2657.94ZM3070.36 154.93L3251.97 577.196H3183.13L3050.77 231.057L3070.36 154.93ZM2942.75 537.348C2939.98 545.278 2939.59 552.019 2941.57 557.57C2943.55 563.121 2946.71 567.482 2951.06 570.654C2955.81 573.43 2960.56 574.817 2965.31 574.817H2970.65V580.765H2848.98V574.817C2848.98 574.817 2849.97 574.817 2851.95 574.817C2853.53 574.817 2854.32 574.817 2854.32 574.817C2863.42 574.817 2872.72 572.042 2882.22 566.491C2892.11 560.543 2900.22 550.829 2906.55 537.348H2942.75ZM3070.36 154.93L3075.11 206.673L2926.73 578.98H2888.15L3040.68 221.541C3041.08 220.748 3042.46 217.774 3044.84 212.62C3047.61 207.069 3050.38 200.527 3053.15 192.994C3056.31 185.46 3059.08 178.125 3061.46 170.988C3063.83 163.851 3065.02 158.499 3065.02 154.93H3070.36ZM3146.92 425.537V445.759H2965.31V425.537H3146.92ZM3167.7 537.348H3234.76C3241.09 550.829 3249.01 560.543 3258.5 566.491C3268.39 572.042 3277.89 574.817 3286.99 574.817C3286.99 574.817 3287.78 574.817 3289.37 574.817C3290.95 574.817 3291.74 574.817 3291.74 574.817V580.765H3139.8V574.817H3145.14C3153.06 574.817 3159.98 571.645 3165.91 565.301C3171.85 558.561 3172.44 549.243 3167.7 537.348Z" fill="#C6C5C5"/>
<path d="M1074.09 851.338C1068.21 851.338 1063.15 850.269 1058.9 848.13C1054.68 845.992 1051.43 843.083 1049.15 839.405C1046.87 835.698 1045.73 831.506 1045.73 826.83C1045.73 823.266 1046.47 820.1 1047.95 817.334C1049.44 814.54 1051.5 811.959 1054.16 809.593C1056.81 807.226 1059.87 804.845 1063.35 802.45L1077.47 792.484C1079.86 790.916 1081.73 789.262 1083.07 787.522C1084.41 785.754 1085.08 783.573 1085.08 780.978C1085.08 778.925 1084.2 776.958 1082.43 775.076C1080.66 773.194 1078.29 772.253 1075.33 772.253C1073.27 772.253 1071.46 772.752 1069.9 773.75C1068.36 774.748 1067.14 776.031 1066.26 777.599C1065.4 779.139 1064.98 780.764 1064.98 782.475C1064.98 784.471 1065.52 786.482 1066.6 788.506C1067.71 790.531 1069.14 792.626 1070.88 794.794C1072.62 796.932 1074.44 799.156 1076.35 801.466L1117.03 850.098H1102.57L1068.91 810.534C1066.09 807.197 1063.47 804.061 1061.04 801.124C1058.62 798.158 1056.65 795.164 1055.14 792.142C1053.66 789.091 1052.92 785.797 1052.92 782.261C1052.92 778.241 1053.83 774.676 1055.65 771.568C1057.51 768.432 1060.09 765.979 1063.39 764.212C1066.7 762.444 1070.58 761.56 1075.03 761.56C1079.53 761.56 1083.4 762.444 1086.62 764.212C1089.87 765.951 1092.37 768.275 1094.1 771.183C1095.87 774.063 1096.76 777.214 1096.76 780.636C1096.76 784.799 1095.72 788.478 1093.63 791.671C1091.58 794.836 1088.74 797.745 1085.12 800.397L1067.54 813.357C1064.12 815.866 1061.74 818.347 1060.4 820.799C1059.09 823.223 1058.43 825.119 1058.43 826.488C1058.43 828.997 1059.07 831.321 1060.36 833.46C1061.67 835.598 1063.49 837.309 1065.83 838.592C1068.2 839.875 1070.97 840.517 1074.13 840.517C1077.38 840.517 1080.55 839.818 1083.63 838.421C1086.73 836.995 1089.54 834.957 1092.05 832.305C1094.59 829.653 1096.6 826.473 1098.08 822.767C1099.57 819.06 1100.31 814.911 1100.31 810.32H1111.86C1111.86 815.966 1111.21 820.742 1109.93 824.648C1108.65 828.526 1107.09 831.692 1105.27 834.144C1103.47 836.568 1101.78 838.464 1100.18 839.833C1099.67 840.289 1099.18 840.745 1098.72 841.201C1098.27 841.657 1097.78 842.114 1097.27 842.57C1094.3 845.564 1090.71 847.774 1086.49 849.2C1082.3 850.625 1078.17 851.338 1074.09 851.338ZM1225.17 850.098H1211.14L1242.66 762.501H1257.93L1289.45 850.098H1275.42L1250.66 778.412H1249.97L1225.17 850.098ZM1227.52 815.795H1273.03V826.915H1227.52V815.795ZM1378.08 785.512C1377.62 781.463 1375.74 778.326 1372.43 776.102C1369.13 773.85 1364.96 772.723 1359.94 772.723C1356.35 772.723 1353.24 773.294 1350.62 774.434C1348 775.546 1345.96 777.086 1344.5 779.053C1343.08 780.992 1342.37 783.202 1342.37 785.683C1342.37 787.765 1342.85 789.561 1343.82 791.072C1344.82 792.584 1346.11 793.853 1347.71 794.879C1349.34 795.877 1351.08 796.718 1352.93 797.403C1354.78 798.059 1356.57 798.6 1358.28 799.028L1366.83 801.252C1369.63 801.937 1372.49 802.863 1375.43 804.032C1378.37 805.201 1381.09 806.741 1383.6 808.652C1386.11 810.562 1388.13 812.929 1389.67 815.752C1391.24 818.575 1392.02 821.954 1392.02 825.889C1392.02 830.85 1390.74 835.256 1388.17 839.105C1385.64 842.955 1381.94 845.992 1377.1 848.216C1372.28 850.44 1366.45 851.552 1359.6 851.552C1353.04 851.552 1347.37 850.511 1342.58 848.43C1337.79 846.348 1334.04 843.397 1331.33 839.576C1328.62 835.726 1327.12 831.164 1326.84 825.889H1340.1C1340.35 829.054 1341.38 831.692 1343.18 833.802C1345 835.883 1347.33 837.437 1350.15 838.464C1353 839.462 1356.12 839.961 1359.52 839.961C1363.25 839.961 1366.57 839.376 1369.48 838.207C1372.42 837.01 1374.73 835.356 1376.41 833.246C1378.09 831.107 1378.94 828.612 1378.94 825.761C1378.94 823.166 1378.19 821.041 1376.71 819.388C1375.26 817.734 1373.28 816.365 1370.77 815.281C1368.29 814.198 1365.48 813.243 1362.34 812.416L1351.99 809.593C1344.97 807.682 1339.41 804.874 1335.31 801.167C1331.23 797.46 1329.19 792.555 1329.19 786.453C1329.19 781.406 1330.56 777 1333.3 773.236C1336.03 769.473 1339.74 766.55 1344.42 764.468C1349.09 762.358 1354.37 761.303 1360.24 761.303C1366.17 761.303 1371.41 762.344 1375.94 764.425C1380.5 766.507 1384.1 769.373 1386.72 773.023C1389.34 776.644 1390.71 780.807 1390.83 785.512H1378.08ZM1484.5 785.512C1484.04 781.463 1482.16 778.326 1478.85 776.102C1475.55 773.85 1471.38 772.723 1466.37 772.723C1462.77 772.723 1459.66 773.294 1457.04 774.434C1454.42 775.546 1452.38 777.086 1450.92 779.053C1449.5 780.992 1448.79 783.202 1448.79 785.683C1448.79 787.765 1449.27 789.561 1450.24 791.072C1451.24 792.584 1452.54 793.853 1454.13 794.879C1455.76 795.877 1457.5 796.718 1459.35 797.403C1461.2 798.059 1462.99 798.6 1464.7 799.028L1473.25 801.252C1476.05 801.937 1478.91 802.863 1481.85 804.032C1484.79 805.201 1487.51 806.741 1490.02 808.652C1492.53 810.562 1494.55 812.929 1496.09 815.752C1497.66 818.575 1498.44 821.954 1498.44 825.889C1498.44 830.85 1497.16 835.256 1494.59 839.105C1492.06 842.955 1488.36 845.992 1483.52 848.216C1478.7 850.44 1472.87 851.552 1466.02 851.552C1459.46 851.552 1453.79 850.511 1449 848.43C1444.21 846.348 1440.46 843.397 1437.75 839.576C1435.04 835.726 1433.54 831.164 1433.26 825.889H1446.52C1446.78 829.054 1447.8 831.692 1449.6 833.802C1451.42 835.883 1453.75 837.437 1456.57 838.464C1459.42 839.462 1462.54 839.961 1465.94 839.961C1469.67 839.961 1472.99 839.376 1475.9 838.207C1478.84 837.01 1481.15 835.356 1482.83 833.246C1484.51 831.107 1485.36 828.612 1485.36 825.761C1485.36 823.166 1484.61 821.041 1483.13 819.388C1481.68 817.734 1479.7 816.365 1477.19 815.281C1474.71 814.198 1471.9 813.243 1468.76 812.416L1458.41 809.593C1451.39 807.682 1445.83 804.874 1441.73 801.167C1437.65 797.46 1435.61 792.555 1435.61 786.453C1435.61 781.406 1436.98 777 1439.72 773.236C1442.46 769.473 1446.16 766.55 1450.84 764.468C1455.52 762.358 1460.79 761.303 1466.66 761.303C1472.6 761.303 1477.83 762.344 1482.36 764.425C1486.92 766.507 1490.52 769.373 1493.14 773.023C1495.76 776.644 1497.13 780.807 1497.25 785.512H1484.5ZM1619.24 806.299C1619.24 815.652 1617.53 823.693 1614.1 830.423C1610.68 837.124 1605.99 842.285 1600.03 845.906C1594.1 849.499 1587.36 851.295 1579.8 851.295C1572.22 851.295 1565.44 849.499 1559.48 845.906C1553.55 842.285 1548.88 837.109 1545.45 830.38C1542.03 823.65 1540.32 815.624 1540.32 806.299C1540.32 796.946 1542.03 788.92 1545.45 782.219C1548.88 775.489 1553.55 770.328 1559.48 766.735C1565.44 763.114 1572.22 761.303 1579.8 761.303C1587.36 761.303 1594.1 763.114 1600.03 766.735C1605.99 770.328 1610.68 775.489 1614.1 782.219C1617.53 788.92 1619.24 796.946 1619.24 806.299ZM1606.15 806.299C1606.15 799.171 1604.99 793.168 1602.68 788.292C1600.4 783.388 1597.27 779.681 1593.27 777.172C1589.31 774.634 1584.82 773.365 1579.8 773.365C1574.75 773.365 1570.25 774.634 1566.28 777.172C1562.32 779.681 1559.18 783.388 1556.87 788.292C1554.59 793.168 1553.45 799.171 1553.45 806.299C1553.45 813.428 1554.59 819.445 1556.87 824.349C1559.18 829.225 1562.32 832.932 1566.28 835.47C1570.25 837.979 1574.75 839.234 1579.8 839.234C1584.82 839.234 1589.31 837.979 1593.27 835.47C1597.27 832.932 1600.4 829.225 1602.68 824.349C1604.99 819.445 1606.15 813.428 1606.15 806.299ZM1737.38 790.987H1724.03C1723.52 788.135 1722.56 785.626 1721.17 783.459C1719.77 781.292 1718.06 779.453 1716.03 777.941C1714.01 776.43 1711.74 775.29 1709.23 774.52C1706.75 773.75 1704.11 773.365 1701.32 773.365C1696.27 773.365 1691.75 774.634 1687.76 777.172C1683.8 779.709 1680.66 783.43 1678.35 788.335C1676.07 793.24 1674.93 799.228 1674.93 806.299C1674.93 813.428 1676.07 819.445 1678.35 824.349C1680.66 829.254 1683.81 832.961 1687.8 835.47C1691.8 837.979 1696.29 839.234 1701.28 839.234C1704.04 839.234 1706.67 838.863 1709.15 838.122C1711.66 837.352 1713.92 836.225 1715.95 834.743C1717.97 833.26 1719.68 831.449 1721.08 829.311C1722.51 827.144 1723.49 824.663 1724.03 821.868L1737.38 821.911C1736.66 826.217 1735.28 830.18 1733.23 833.802C1731.2 837.395 1728.59 840.503 1725.4 843.126C1722.24 845.721 1718.61 847.731 1714.54 849.157C1710.46 850.583 1706.01 851.295 1701.19 851.295C1693.61 851.295 1686.85 849.499 1680.92 845.906C1674.99 842.285 1670.31 837.109 1666.89 830.38C1663.49 823.65 1661.8 815.624 1661.8 806.299C1661.8 796.946 1663.51 788.92 1666.93 782.219C1670.35 775.489 1675.03 770.328 1680.96 766.735C1686.89 763.114 1693.64 761.303 1701.19 761.303C1705.84 761.303 1710.17 761.973 1714.19 763.313C1718.24 764.625 1721.88 766.564 1725.1 769.13C1728.32 771.668 1730.99 774.776 1733.1 778.455C1735.21 782.105 1736.64 786.282 1737.38 790.987ZM1795.32 762.501V850.098H1782.1V762.501H1795.32ZM1850.87 850.098H1836.84L1868.36 762.501H1883.63L1915.16 850.098H1901.13L1876.36 778.412H1875.68L1850.87 850.098ZM1853.22 815.795H1898.73V826.915H1853.22V815.795ZM1985.07 850.098H1956.71V762.501H1985.97C1994.55 762.501 2001.92 764.254 2008.08 767.762C2014.24 771.24 2018.96 776.245 2022.24 782.775C2025.55 789.276 2027.2 797.075 2027.2 806.171C2027.2 815.296 2025.53 823.137 2022.2 829.696C2018.89 836.254 2014.1 841.301 2007.82 844.837C2001.55 848.344 1993.97 850.098 1985.07 850.098ZM1969.93 838.549H1984.34C1991.02 838.549 1996.56 837.295 2000.98 834.785C2005.4 832.248 2008.71 828.584 2010.9 823.793C2013.1 818.974 2014.2 813.1 2014.2 806.171C2014.2 799.299 2013.1 793.468 2010.9 788.677C2008.74 783.887 2005.5 780.251 2001.2 777.77C1996.89 775.29 1991.54 774.049 1985.16 774.049H1969.93V838.549ZM2148.63 806.299C2148.63 815.652 2146.92 823.693 2143.5 830.423C2140.08 837.124 2135.39 842.285 2129.43 845.906C2123.5 849.499 2116.75 851.295 2109.2 851.295C2101.61 851.295 2094.84 849.499 2088.88 845.906C2082.95 842.285 2078.27 837.109 2074.85 830.38C2071.43 823.65 2069.72 815.624 2069.72 806.299C2069.72 796.946 2071.43 788.92 2074.85 782.219C2078.27 775.489 2082.95 770.328 2088.88 766.735C2094.84 763.114 2101.61 761.303 2109.2 761.303C2116.75 761.303 2123.5 763.114 2129.43 766.735C2135.39 770.328 2140.08 775.489 2143.5 782.219C2146.92 788.92 2148.63 796.946 2148.63 806.299ZM2135.55 806.299C2135.55 799.171 2134.39 793.168 2132.08 788.292C2129.8 783.388 2126.66 779.681 2122.67 777.172C2118.71 774.634 2114.22 773.365 2109.2 773.365C2104.15 773.365 2099.65 774.634 2095.68 777.172C2091.72 779.681 2088.58 783.388 2086.27 788.292C2083.99 793.168 2082.85 799.171 2082.85 806.299C2082.85 813.428 2083.99 819.445 2086.27 824.349C2088.58 829.225 2091.72 832.932 2095.68 835.47C2099.65 837.979 2104.15 839.234 2109.2 839.234C2114.22 839.234 2118.71 837.979 2122.67 835.47C2126.66 832.932 2129.8 829.225 2132.08 824.349C2134.39 819.445 2135.55 813.428 2135.55 806.299ZM2241.8 785.512C2241.34 781.463 2239.46 778.326 2236.15 776.102C2232.84 773.85 2228.68 772.723 2223.66 772.723C2220.07 772.723 2216.96 773.294 2214.34 774.434C2211.71 775.546 2209.67 777.086 2208.22 779.053C2206.79 780.992 2206.08 783.202 2206.08 785.683C2206.08 787.765 2206.57 789.561 2207.54 791.072C2208.53 792.584 2209.83 793.853 2211.43 794.879C2213.05 795.877 2214.79 796.718 2216.65 797.403C2218.5 798.059 2220.28 798.6 2221.99 799.028L2230.55 801.252C2233.34 801.937 2236.21 802.863 2239.14 804.032C2242.08 805.201 2244.8 806.741 2247.31 808.652C2249.82 810.562 2251.85 812.929 2253.39 815.752C2254.96 818.575 2255.74 821.954 2255.74 825.889C2255.74 830.85 2254.46 835.256 2251.89 839.105C2249.35 842.955 2245.66 845.992 2240.81 848.216C2235.99 850.44 2230.16 851.552 2223.32 851.552C2216.76 851.552 2211.09 850.511 2206.29 848.43C2201.5 846.348 2197.75 843.397 2195.05 839.576C2192.34 835.726 2190.84 831.164 2190.55 825.889H2203.81C2204.07 829.054 2205.1 831.692 2206.89 833.802C2208.72 835.883 2211.04 837.437 2213.87 838.464C2216.72 839.462 2219.84 839.961 2223.23 839.961C2226.97 839.961 2230.29 839.376 2233.2 838.207C2236.14 837.01 2238.45 835.356 2240.13 833.246C2241.81 831.107 2242.65 828.612 2242.65 825.761C2242.65 823.166 2241.91 821.041 2240.43 819.388C2238.97 817.734 2236.99 816.365 2234.48 815.281C2232 814.198 2229.19 813.243 2226.06 812.416L2215.7 809.593C2208.69 807.682 2203.13 804.874 2199.02 801.167C2194.95 797.46 2192.91 792.555 2192.91 786.453C2192.91 781.406 2194.28 777 2197.01 773.236C2199.75 769.473 2203.46 766.55 2208.13 764.468C2212.81 762.358 2218.09 761.303 2223.96 761.303C2229.89 761.303 2235.12 762.344 2239.66 764.425C2244.22 766.507 2247.81 769.373 2250.44 773.023C2253.06 776.644 2254.43 780.807 2254.54 785.512H2241.8ZM2368.62 850.098H2354.59L2386.12 762.501H2401.39L2432.91 850.098H2418.88L2394.11 778.412H2393.43L2368.62 850.098ZM2370.97 815.795H2416.48V826.915H2370.97V815.795ZM2502.82 850.098H2474.47V762.501H2503.72C2512.3 762.501 2519.68 764.254 2525.84 767.762C2531.99 771.24 2536.71 776.245 2539.99 782.775C2543.3 789.276 2544.95 797.075 2544.95 806.171C2544.95 815.296 2543.29 823.137 2539.95 829.696C2536.64 836.254 2531.85 841.301 2525.58 844.837C2519.31 848.344 2511.72 850.098 2502.82 850.098ZM2487.68 838.549H2502.1C2508.77 838.549 2514.32 837.295 2518.73 834.785C2523.15 832.248 2526.46 828.584 2528.66 823.793C2530.85 818.974 2531.95 813.1 2531.95 806.171C2531.95 799.299 2530.85 793.468 2528.66 788.677C2526.49 783.887 2523.25 780.251 2518.95 777.77C2514.64 775.29 2509.3 774.049 2502.91 774.049H2487.68V838.549ZM2593.6 762.501L2617.98 833.844H2618.96L2643.34 762.501H2657.63L2626.11 850.098H2610.84L2579.31 762.501H2593.6ZM2770.93 806.299C2770.93 815.652 2769.22 823.693 2765.79 830.423C2762.37 837.124 2757.68 842.285 2751.72 845.906C2745.79 849.499 2739.05 851.295 2731.49 851.295C2723.91 851.295 2717.13 849.499 2711.17 845.906C2705.24 842.285 2700.57 837.109 2697.14 830.38C2693.72 823.65 2692.01 815.624 2692.01 806.299C2692.01 796.946 2693.72 788.92 2697.14 782.219C2700.57 775.489 2705.24 770.328 2711.17 766.735C2717.13 763.114 2723.91 761.303 2731.49 761.303C2739.05 761.303 2745.79 763.114 2751.72 766.735C2757.68 770.328 2762.37 775.489 2765.79 782.219C2769.22 788.92 2770.93 796.946 2770.93 806.299ZM2757.84 806.299C2757.84 799.171 2756.68 793.168 2754.37 788.292C2752.09 783.388 2748.96 779.681 2744.96 777.172C2741 774.634 2736.51 773.365 2731.49 773.365C2726.44 773.365 2721.94 774.634 2717.97 777.172C2714.01 779.681 2710.87 783.388 2708.56 788.292C2706.28 793.168 2705.14 799.171 2705.14 806.299C2705.14 813.428 2706.28 819.445 2708.56 824.349C2710.87 829.225 2714.01 832.932 2717.97 835.47C2721.94 837.979 2726.44 839.234 2731.49 839.234C2736.51 839.234 2741 837.979 2744.96 835.47C2748.96 832.932 2752.09 829.225 2754.37 824.349C2756.68 819.445 2757.84 813.428 2757.84 806.299ZM2875.59 790.174C2874.77 787.579 2873.65 785.255 2872.26 783.202C2870.89 781.121 2869.25 779.353 2867.34 777.899C2865.43 776.416 2863.25 775.29 2860.79 774.52C2858.37 773.75 2855.7 773.365 2852.8 773.365C2847.86 773.365 2843.41 774.634 2839.45 777.172C2835.49 779.709 2832.35 783.43 2830.04 788.335C2827.76 793.211 2826.62 799.185 2826.62 806.257C2826.62 813.357 2827.77 819.359 2830.08 824.264C2832.39 829.168 2835.56 832.889 2839.58 835.427C2843.6 837.965 2848.18 839.234 2853.31 839.234C2858.07 839.234 2862.22 838.264 2865.76 836.325C2869.32 834.386 2872.07 831.649 2874.01 828.113C2875.98 824.549 2876.96 820.357 2876.96 815.538L2880.38 816.18H2855.32V805.273H2889.75V815.239C2889.75 822.595 2888.18 828.983 2885.05 834.401C2881.94 839.79 2877.63 843.953 2872.13 846.89C2866.65 849.827 2860.38 851.295 2853.31 851.295C2845.38 851.295 2838.42 849.471 2832.44 845.821C2826.48 842.171 2821.83 836.995 2818.49 830.294C2815.16 823.565 2813.49 815.581 2813.49 806.342C2813.49 799.356 2814.46 793.083 2816.4 787.522C2818.34 781.962 2821.06 777.243 2824.57 773.365C2828.1 769.458 2832.25 766.479 2837.01 764.425C2841.8 762.344 2847.04 761.303 2852.71 761.303C2857.44 761.303 2861.85 762.002 2865.93 763.399C2870.03 764.796 2873.68 766.778 2876.88 769.344C2880.1 771.911 2882.76 774.962 2884.88 778.497C2886.99 782.005 2888.41 785.897 2889.15 790.174H2875.59ZM2940.13 850.098H2926.1L2957.62 762.501H2972.89L3004.42 850.098H2990.39L2965.62 778.412H2964.94L2940.13 850.098ZM2942.48 815.795H2987.99V826.915H2942.48V815.795ZM3074.33 850.098H3045.97V762.501H3075.23C3083.81 762.501 3091.18 764.254 3097.34 767.762C3103.5 771.24 3108.22 776.245 3111.5 782.775C3114.81 789.276 3116.46 797.075 3116.46 806.171C3116.46 815.296 3114.79 823.137 3111.46 829.696C3108.15 836.254 3103.36 841.301 3097.09 844.837C3090.81 848.344 3083.23 850.098 3074.33 850.098ZM3059.19 838.549H3073.6C3080.28 838.549 3085.82 837.295 3090.24 834.785C3094.66 832.248 3097.97 828.584 3100.17 823.793C3102.36 818.974 3103.46 813.1 3103.46 806.171C3103.46 799.299 3102.36 793.468 3100.17 788.677C3098 783.887 3094.76 780.251 3090.46 777.77C3086.15 775.29 3080.8 774.049 3074.42 774.049H3059.19V838.549ZM3237.89 806.299C3237.89 815.652 3236.18 823.693 3232.76 830.423C3229.34 837.124 3224.65 842.285 3218.69 845.906C3212.76 849.499 3206.02 851.295 3198.46 851.295C3190.87 851.295 3184.1 849.499 3178.14 845.906C3172.21 842.285 3167.53 837.109 3164.11 830.38C3160.69 823.65 3158.98 815.624 3158.98 806.299C3158.98 796.946 3160.69 788.92 3164.11 782.219C3167.53 775.489 3172.21 770.328 3178.14 766.735C3184.1 763.114 3190.87 761.303 3198.46 761.303C3206.02 761.303 3212.76 763.114 3218.69 766.735C3224.65 770.328 3229.34 775.489 3232.76 782.219C3236.18 788.92 3237.89 796.946 3237.89 806.299ZM3224.81 806.299C3224.81 799.171 3223.65 793.168 3221.34 788.292C3219.06 783.388 3215.92 779.681 3211.93 777.172C3207.97 774.634 3203.48 773.365 3198.46 773.365C3193.41 773.365 3188.91 774.634 3184.94 777.172C3180.98 779.681 3177.84 783.388 3175.53 788.292C3173.25 793.168 3172.11 799.171 3172.11 806.299C3172.11 813.428 3173.25 819.445 3175.53 824.349C3177.84 829.225 3180.98 832.932 3184.94 835.47C3188.91 837.979 3193.41 839.234 3198.46 839.234C3203.48 839.234 3207.97 837.979 3211.93 835.47C3215.92 832.932 3219.06 829.225 3221.34 824.349C3223.65 819.445 3224.81 813.428 3224.81 806.299ZM3331.06 785.512C3330.6 781.463 3328.72 778.326 3325.41 776.102C3322.1 773.85 3317.94 772.723 3312.92 772.723C3309.33 772.723 3306.22 773.294 3303.6 774.434C3300.97 775.546 3298.93 777.086 3297.48 779.053C3296.05 780.992 3295.34 783.202 3295.34 785.683C3295.34 787.765 3295.83 789.561 3296.8 791.072C3297.79 792.584 3299.09 793.853 3300.69 794.879C3302.31 795.877 3304.05 796.718 3305.91 797.403C3307.76 798.059 3309.54 798.6 3311.25 799.028L3319.81 801.252C3322.6 801.937 3325.47 802.863 3328.4 804.032C3331.34 805.201 3334.06 806.741 3336.57 808.652C3339.08 810.562 3341.11 812.929 3342.65 815.752C3344.22 818.575 3345 821.954 3345 825.889C3345 830.85 3343.72 835.256 3341.15 839.105C3338.61 842.955 3334.92 845.992 3330.07 848.216C3325.25 850.44 3319.42 851.552 3312.58 851.552C3306.02 851.552 3300.35 850.511 3295.56 848.43C3290.77 846.348 3287.02 843.397 3284.31 839.576C3281.6 835.726 3280.1 831.164 3279.82 825.889H3293.07C3293.33 829.054 3294.36 831.692 3296.15 833.802C3297.98 835.883 3300.3 837.437 3303.13 838.464C3305.98 839.462 3309.1 839.961 3312.49 839.961C3316.23 839.961 3319.55 839.376 3322.46 838.207C3325.4 837.01 3327.71 835.356 3329.39 833.246C3331.07 831.107 3331.91 828.612 3331.91 825.761C3331.91 823.166 3331.17 821.041 3329.69 819.388C3328.23 817.734 3326.25 816.365 3323.74 815.281C3321.26 814.198 3318.45 813.243 3315.32 812.416L3304.97 809.593C3297.95 807.682 3292.39 804.874 3288.28 801.167C3284.21 797.46 3282.17 792.555 3282.17 786.453C3282.17 781.406 3283.54 777 3286.27 773.236C3289.01 769.473 3292.72 766.55 3297.39 764.468C3302.07 762.358 3307.35 761.303 3313.22 761.303C3319.15 761.303 3324.38 762.344 3328.92 764.425C3333.48 766.507 3337.07 769.373 3339.7 773.023C3342.32 776.644 3343.69 780.807 3343.8 785.512H3331.06Z" fill="#C6C5C5"/>
</svg>
