<svg width="28" height="1072" viewBox="0 0 28 1072" fill="none" xmlns="http://www.w3.org/2000/svg">
<path d="M0.000274845 914.353V988.671L27.3785 988.672L27.3739 928.42L13.4566 928.366V934.976H20.5941V982.176H6.55183V920.904H27.3681L27.3819 914.351L0.000274845 914.353Z" fill="#730103" fill-opacity="0.08"/>
<path d="M0.00125207 997.681V1072L27.3795 1072L27.3748 1011.75L13.4576 1011.69V1018.3H20.5951V1065.5H6.55281V1004.23H27.3691L27.3829 997.678L0.00125207 997.681Z" fill="#730103" fill-opacity="0.08"/>
<path d="M0.000274845 831.23V905.548L27.3785 905.549L27.3739 845.297L13.4566 845.243V851.853H20.5941V899.053H6.55183V837.781H27.3681L27.3819 831.228L0.000274845 831.23Z" fill="#730103" fill-opacity="0.08"/>
<path d="M0.000274845 748.108V822.426L27.3785 822.427L27.3739 762.174L13.4566 762.121V768.73H20.5941V815.931H6.55183V754.659H27.3681L27.3819 748.105L0.000274845 748.108Z" fill="#730103" fill-opacity="0.08"/>
<path d="M0.000274845 664.985V739.303L27.3785 739.304L27.3739 679.051L13.4566 678.998V685.607H20.5941V732.808H6.55183V671.536H27.3681L27.3819 664.982L0.000274845 664.985Z" fill="#730103" fill-opacity="0.08"/>
<path d="M0.000274845 581.862V656.18L27.3785 656.181L27.3739 595.928L13.4566 595.875V602.485H20.5941V649.685H6.55183V588.413H27.3681L27.3819 581.86L0.000274845 581.862Z" fill="#730103" fill-opacity="0.08"/>
<path d="M0.000274845 498.739V573.057L27.3785 573.058L27.3739 512.805L13.4566 512.752V519.362H20.5941V566.562H6.55183V505.29H27.3681L27.3819 498.737L0.000274845 498.739Z" fill="#730103" fill-opacity="0.08"/>
<path d="M0.000274845 415.616V489.934L27.3785 489.935L27.3739 429.682L13.4566 429.629V436.239H20.5941V483.439H6.55183V422.167H27.3681L27.3819 415.614L0.000274845 415.616Z" fill="#730103" fill-opacity="0.08"/>
<path d="M0.000274845 332.493V406.811L27.3785 406.812L27.3739 346.56L13.4566 346.506V353.116H20.5941V400.316H6.55183V339.044H27.3681L27.3819 332.491L0.000274845 332.493Z" fill="#730103" fill-opacity="0.08"/>
<path d="M0.000274845 249.371V323.689L27.3785 323.69L27.3739 263.438L13.4566 263.384V269.994H20.5941V317.194H6.55183V255.922H27.3681L27.3819 249.369L0.000274845 249.371Z" fill="#730103" fill-opacity="0.08"/>
<path d="M0.000274845 166.248V240.566L27.3785 240.567L27.3739 180.315L13.4566 180.261V186.871H20.5941V234.071H6.55183V172.799H27.3681L27.3819 166.246L0.000274845 166.248Z" fill="#730103" fill-opacity="0.08"/>
<path d="M0.000274845 83.1251V157.443L27.3785 157.444L27.3739 97.1917L13.4566 97.1383V103.748H20.5941V150.948H6.55183V89.6764H27.3681L27.3819 83.1229L0.000274845 83.1251Z" fill="#730103" fill-opacity="0.08"/>
<path d="M0.000274845 0.0021265V74.3201L27.3785 74.3216L27.3739 14.0688L13.4566 14.0154V20.625H20.5941V67.8251H6.55183V6.55349H27.3681L27.3819 0L0.000274845 0.0021265Z" fill="#730103" fill-opacity="0.08"/>
</svg>
